<?xml version="1.0" standalone="no"?>
<!DOCTYPE svg PUBLIC "-//W3C//DTD SVG 20010904//EN"
 "http://www.w3.org/TR/2001/REC-SVG-20010904/DTD/svg10.dtd">
<svg version="1.0" xmlns="http://www.w3.org/2000/svg"
 width="290.000000pt" height="290.000000pt" viewBox="0 0 290.000000 290.000000"
 preserveAspectRatio="xMidYMid meet">
<metadata>
Created by potrace 1.14, written by Peter Selinger 2001-2017
</metadata>
<g transform="translate(0.000000,290.000000) scale(0.100000,-0.100000)"
fill="#000000" stroke="none">
<path d="M1180 2453 c-192 -14 -385 -62 -449 -110 -57 -44 -61 -65 -61 -338
l0 -245 53 21 c78 31 227 69 270 69 20 0 37 3 37 8 0 4 -25 27 -55 51 -30 24
-54 46 -52 47 2 2 165 -12 362 -31 198 -19 415 -40 482 -46 l121 -12 -250
-164 -250 -165 -82 81 -82 82 -60 -48 c-33 -27 -58 -55 -57 -63 2 -9 -26 -32
-74 -60 -103 -61 -258 -210 -332 -320 -54 -80 -121 -221 -121 -252 0 -8 13
-26 28 -41 l29 -28 14 58 c14 57 14 55 19 -147 5 -194 6 -208 30 -254 20 -39
37 -56 80 -80 54 -31 57 -31 195 -30 77 0 166 6 198 13 l57 12 0 310 0 309 88
0 87 -1 155 -252 c222 -361 268 -402 450 -402 76 0 104 5 142 22 66 30 132 95
158 154 l21 51 -47 72 c-26 39 -110 152 -187 251 -182 234 -176 225 -153 239
105 62 209 174 268 289 62 121 75 330 29 477 -47 150 -179 302 -324 374 -171
84 -445 121 -737 99z"/>
</g>
</svg>
